<svg id="SvgjsSvg1006" width="1071" height="935" xmlns="http://www.w3.org/2000/svg" version="1.1" xmlns:xlink="http://www.w3.org/1999/xlink" xmlns:svgjs="http://svgjs.com/svgjs"><defs id="SvgjsDefs1007"><marker id="SvgjsMarker1036" markerWidth="16" markerHeight="12" refX="16" refY="6" viewBox="0 0 16 12" orient="auto" markerUnits="userSpaceOnUse"><path id="SvgjsPath1037" d="M0,2 L14,6 L0,11 L0,2" fill="#323232" stroke="#323232" stroke-width="2"></path></marker><marker id="SvgjsMarker1040" markerWidth="16" markerHeight="12" refX="16" refY="6" viewBox="0 0 16 12" orient="auto" markerUnits="userSpaceOnUse"><path id="SvgjsPath1041" d="M0,2 L14,6 L0,11 L0,2" fill="#323232" stroke="#323232" stroke-width="2"></path></marker><marker id="SvgjsMarker1050" markerWidth="16" markerHeight="12" refX="16" refY="6" viewBox="0 0 16 12" orient="auto" markerUnits="userSpaceOnUse"><path id="SvgjsPath1051" d="M0,2 L14,6 L0,11 L0,2" fill="#323232" stroke="#323232" stroke-width="2"></path></marker><marker id="SvgjsMarker1060" markerWidth="16" markerHeight="12" refX="16" refY="6" viewBox="0 0 16 12" orient="auto" markerUnits="userSpaceOnUse"><path id="SvgjsPath1061" d="M0,2 L14,6 L0,11 L0,2" fill="#323232" stroke="#323232" stroke-width="2"></path></marker><marker id="SvgjsMarker1064" markerWidth="16" markerHeight="12" refX="16" refY="6" viewBox="0 0 16 12" orient="auto" markerUnits="userSpaceOnUse"><path id="SvgjsPath1065" d="M0,2 L14,6 L0,11 L0,2" fill="#323232" stroke="#323232" stroke-width="2"></path></marker><marker id="SvgjsMarker1076" markerWidth="16" markerHeight="12" refX="16" refY="6" viewBox="0 0 16 12" orient="auto" markerUnits="userSpaceOnUse"><path id="SvgjsPath1077" d="M0,2 L14,6 L0,11 L0,2" fill="#323232" stroke="#323232" stroke-width="2"></path></marker><marker id="SvgjsMarker1098" markerWidth="16" markerHeight="12" refX="16" refY="6" viewBox="0 0 16 12" orient="auto" markerUnits="userSpaceOnUse"><path id="SvgjsPath1099" d="M0,2 L14,6 L0,11 L0,2" fill="#323232" stroke="#323232" stroke-width="2"></path></marker><marker id="SvgjsMarker1108" markerWidth="16" markerHeight="12" refX="16" refY="6" viewBox="0 0 16 12" orient="auto" markerUnits="userSpaceOnUse"><path id="SvgjsPath1109" d="M0,2 L14,6 L0,11 L0,2" fill="#323232" stroke="#323232" stroke-width="2"></path></marker><marker id="SvgjsMarker1124" markerWidth="16" markerHeight="12" refX="16" refY="6" viewBox="0 0 16 12" orient="auto" markerUnits="userSpaceOnUse"><path id="SvgjsPath1125" d="M0,2 L14,6 L0,11 L0,2" fill="#323232" stroke="#323232" stroke-width="2"></path></marker><marker id="SvgjsMarker1140" markerWidth="16" markerHeight="12" refX="16" refY="6" viewBox="0 0 16 12" orient="auto" markerUnits="userSpaceOnUse"><path id="SvgjsPath1141" d="M0,2 L14,6 L0,11 L0,2" fill="#323232" stroke="#323232" stroke-width="2"></path></marker><marker id="SvgjsMarker1150" markerWidth="16" markerHeight="12" refX="16" refY="6" viewBox="0 0 16 12" orient="auto" markerUnits="userSpaceOnUse"><path id="SvgjsPath1151" d="M0,2 L14,6 L0,11 L0,2" fill="#323232" stroke="#323232" stroke-width="2"></path></marker><marker id="SvgjsMarker1166" markerWidth="16" markerHeight="12" refX="16" refY="6" viewBox="0 0 16 12" orient="auto" markerUnits="userSpaceOnUse"><path id="SvgjsPath1167" d="M0,2 L14,6 L0,11 L0,2" fill="#323232" stroke="#323232" stroke-width="2"></path></marker><marker id="SvgjsMarker1170" markerWidth="16" markerHeight="12" refX="16" refY="6" viewBox="0 0 16 12" orient="auto" markerUnits="userSpaceOnUse"><path id="SvgjsPath1171" d="M0,2 L14,6 L0,11 L0,2" fill="#323232" stroke="#323232" stroke-width="2"></path></marker><marker id="SvgjsMarker1198" markerWidth="16" markerHeight="12" refX="16" refY="6" viewBox="0 0 16 12" orient="auto" markerUnits="userSpaceOnUse"><path id="SvgjsPath1199" d="M0,2 L14,6 L0,11 L0,2" fill="#323232" stroke="#323232" stroke-width="2"></path></marker><marker id="SvgjsMarker1208" markerWidth="16" markerHeight="12" refX="16" refY="6" viewBox="0 0 16 12" orient="auto" markerUnits="userSpaceOnUse"><path id="SvgjsPath1209" d="M0,2 L14,6 L0,11 L0,2" fill="#323232" stroke="#323232" stroke-width="2"></path></marker><marker id="SvgjsMarker1234" markerWidth="16" markerHeight="12" refX="16" refY="6" viewBox="0 0 16 12" orient="auto" markerUnits="userSpaceOnUse"><path id="SvgjsPath1235" d="M0,2 L14,6 L0,11 L0,2" fill="#323232" stroke="#323232" stroke-width="2"></path></marker><marker id="SvgjsMarker1238" markerWidth="16" markerHeight="12" refX="16" refY="6" viewBox="0 0 16 12" orient="auto" markerUnits="userSpaceOnUse"><path id="SvgjsPath1239" d="M0,2 L14,6 L0,11 L0,2" fill="#323232" stroke="#323232" stroke-width="2"></path></marker><marker id="SvgjsMarker1248" markerWidth="16" markerHeight="12" refX="16" refY="6" viewBox="0 0 16 12" orient="auto" markerUnits="userSpaceOnUse"><path id="SvgjsPath1249" d="M0,2 L14,6 L0,11 L0,2" fill="#323232" stroke="#323232" stroke-width="2"></path></marker><marker id="SvgjsMarker1252" markerWidth="16" markerHeight="12" refX="16" refY="6" viewBox="0 0 16 12" orient="auto" markerUnits="userSpaceOnUse"><path id="SvgjsPath1253" d="M0,2 L14,6 L0,11 L0,2" fill="#323232" stroke="#323232" stroke-width="2"></path></marker><marker id="SvgjsMarker1272" markerWidth="16" markerHeight="12" refX="16" refY="6" viewBox="0 0 16 12" orient="auto" markerUnits="userSpaceOnUse"><path id="SvgjsPath1273" d="M0,2 L14,6 L0,11 L0,2" fill="#323232" stroke="#323232" stroke-width="2"></path></marker><marker id="SvgjsMarker1282" markerWidth="16" markerHeight="12" refX="16" refY="6" viewBox="0 0 16 12" orient="auto" markerUnits="userSpaceOnUse"><path id="SvgjsPath1283" d="M0,2 L14,6 L0,11 L0,2" fill="#323232" stroke="#323232" stroke-width="2"></path></marker><marker id="SvgjsMarker1296" markerWidth="16" markerHeight="12" refX="16" refY="6" viewBox="0 0 16 12" orient="auto" markerUnits="userSpaceOnUse"><path id="SvgjsPath1297" d="M0,2 L14,6 L0,11 L0,2" fill="#323232" stroke="#323232" stroke-width="2"></path></marker><marker id="SvgjsMarker1332" markerWidth="16" markerHeight="12" refX="16" refY="6" viewBox="0 0 16 12" orient="auto" markerUnits="userSpaceOnUse"><path id="SvgjsPath1333" d="M0,2 L14,6 L0,11 L0,2" fill="#323232" stroke="#323232" stroke-width="2"></path></marker><marker id="SvgjsMarker1338" markerWidth="16" markerHeight="12" refX="16" refY="6" viewBox="0 0 16 12" orient="auto" markerUnits="userSpaceOnUse"><path id="SvgjsPath1339" d="M0,2 L14,6 L0,11 L0,2" fill="#323232" stroke="#323232" stroke-width="2"></path></marker><marker id="SvgjsMarker1352" markerWidth="16" markerHeight="12" refX="16" refY="6" viewBox="0 0 16 12" orient="auto" markerUnits="userSpaceOnUse"><path id="SvgjsPath1353" d="M0,2 L14,6 L0,11 L0,2" fill="#323232" stroke="#323232" stroke-width="2"></path></marker><marker id="SvgjsMarker1364" markerWidth="16" markerHeight="12" refX="16" refY="6" viewBox="0 0 16 12" orient="auto" markerUnits="userSpaceOnUse"><path id="SvgjsPath1365" d="M0,2 L14,6 L0,11 L0,2" fill="#323232" stroke="#323232" stroke-width="2"></path></marker></defs><g id="SvgjsG1008" transform="translate(125,719)"><path id="SvgjsPath1009" d="M 15 0L 88.33333333333333 0C 103.18181818181819 0 103.18181818181819 70 88.33333333333333 70L 15 70C -5 70 -5 0 15 0ZM 88.33333333333333 0C 73.75 0 73.75 70 88.33333333333333 70C 73.75 70 73.75 0 88.33333333333333 0" stroke="#323232" stroke-width="2" fill-opacity="1" fill="#ffffff"></path><g id="SvgjsG1010"><text id="SvgjsText1011" font-family="微软雅黑" text-anchor="middle" font-size="13px" width="52" fill="#323232" font-weight="400" align="middle" anchor="middle" family="微软雅黑" size="13px" weight="400" font-style="" y="25.05" transform="rotate(0)"><tspan id="SvgjsTspan1012" dy="16" x="40"><tspan id="SvgjsTspan1013" style="text-decoration:;">本地仓库</tspan></tspan></text></g></g><g id="SvgjsG1014" transform="translate(25,25)"><path id="SvgjsPath1015" d="M 10.799999999999999 49C -9 35 3.6 24.5 8.1 21C 6.300000000000001 3.5 28.8 0 37.8 7C 45 -3.5 67.5 0 67.5 10.5C 85.5 7 92.7 21 85.5 38.5C 91.8 52.5 85.5 70 64.8 63C 60.300000000000004 72.10000000000001 42.3 72.10000000000001 37.8 63C 28.8 70 10.799999999999999 66.5 10.799999999999999 49Z" stroke="#323232" stroke-width="2" fill-opacity="1" fill="#ffffff"></path><g id="SvgjsG1016"><text id="SvgjsText1017" font-family="微软雅黑" text-anchor="middle" font-size="13px" width="52" fill="#323232" font-weight="400" align="middle" anchor="middle" family="微软雅黑" size="13px" weight="400" font-style="" y="25.05" transform="rotate(0)"><tspan id="SvgjsTspan1018" dy="16" x="45"><tspan id="SvgjsTspan1019" style="text-decoration:;">远端仓库</tspan></tspan></text></g></g><g id="SvgjsG1020" transform="translate(231,30)"><path id="SvgjsPath1021" d="M 16.666666666666668 0L 83.33333333333333 0C 105.55555555555556 0 105.55555555555556 50 83.33333333333333 50L 16.666666666666668 50C -5.555555555555556 50 -5.555555555555556 0 16.666666666666668 0Z" stroke="#323232" stroke-width="2" fill-opacity="1" fill="#ffffff"></path><g id="SvgjsG1022"><text id="SvgjsText1023" font-family="微软雅黑" text-anchor="middle" font-size="13px" width="39" fill="#323232" font-weight="400" align="middle" anchor="middle" family="微软雅黑" size="13px" weight="400" font-style="" y="15.05" transform="rotate(0)"><tspan id="SvgjsTspan1024" dy="16" x="50"><tspan id="SvgjsTspan1025" style="text-decoration:;">初始化</tspan></tspan></text></g></g><g id="SvgjsG1026" transform="translate(231,196)"><path id="SvgjsPath1027" d="M 0 0L 100 0L 100 70L 0 70Z" stroke="#323232" stroke-width="2" fill-opacity="1" fill="#ffffff"></path><g id="SvgjsG1028"><text id="SvgjsText1029" font-family="微软雅黑" text-anchor="middle" font-size="13px" width="78" fill="#323232" font-weight="400" align="middle" anchor="middle" family="微软雅黑" size="13px" weight="400" font-style="" y="17.05" transform="rotate(0)"><tspan id="SvgjsTspan1030" dy="16" x="50"><tspan id="SvgjsTspan1031" style="text-decoration:;">初始化本地仓</tspan></tspan><tspan id="SvgjsTspan1032" dy="16" x="50"><tspan id="SvgjsTspan1033" style="text-decoration:;">库</tspan></tspan></text></g></g><g id="SvgjsG1034"><path id="SvgjsPath1035" d="M281 80L281 138L281 138L281 196" stroke="#323232" stroke-width="2" fill="none" marker-end="url(#SvgjsMarker1036)"></path></g><g id="SvgjsG1038"><path id="SvgjsPath1039" d="M281 266L281 349" stroke="#323232" stroke-width="2" fill="none" marker-end="url(#SvgjsMarker1040)"></path></g><g id="SvgjsG1042" transform="translate(231,349)"><path id="SvgjsPath1043" d="M 0 61.666666666666664L 0 0L 100 0L 100 61.666666666666664Q 75 45 50 61.666666666666664Q 25 78.33333333333333 0 61.666666666666664Z" stroke="#323232" stroke-width="2" fill-opacity="1" fill="#ffffff"></path><g id="SvgjsG1044"><text id="SvgjsText1045" font-family="微软雅黑" text-anchor="middle" font-size="13px" width="78" fill="#323232" font-weight="400" align="middle" anchor="middle" family="微软雅黑" size="13px" weight="400" font-style="" y="21.55" transform="rotate(0)"><tspan id="SvgjsTspan1046" dy="16" x="50"><tspan id="SvgjsTspan1047" style="text-decoration:;">仓库配置文件</tspan></tspan></text></g></g><g id="SvgjsG1048"><path id="SvgjsPath1049" d="M281 410.6666666666667L281 564.8333333333334L317 564.8333333333334L317 719" stroke="#323232" stroke-width="2" fill="none" marker-end="url(#SvgjsMarker1050)"></path></g><g id="SvgjsG1052" transform="translate(267,719)"><path id="SvgjsPath1053" d="M 0 0L 100 0L 100 70L 0 70Z" stroke="#323232" stroke-width="2" fill-opacity="1" fill="#ffffff"></path><g id="SvgjsG1054"><text id="SvgjsText1055" font-family="微软雅黑" text-anchor="middle" font-size="13px" width="26" fill="#323232" font-weight="400" align="middle" anchor="middle" family="微软雅黑" size="13px" weight="400" font-style="" y="25.05" transform="rotate(0)"><tspan id="SvgjsTspan1056" dy="16" x="50"><tspan id="SvgjsTspan1057" style="text-decoration:;">提交</tspan></tspan></text></g></g><g id="SvgjsG1058"><path id="SvgjsPath1059" d="M267 754L246 754L246 754L225 754" stroke="#323232" stroke-width="2" fill="none" marker-end="url(#SvgjsMarker1060)"></path></g><g id="SvgjsG1062"><path id="SvgjsPath1063" d="M125 754L76.3 754L76.3 95" stroke="#323232" stroke-width="2" fill="none" marker-end="url(#SvgjsMarker1064)"></path></g><g id="SvgjsG1066"><path id="SvgjsPath1067" d="M111.58 81L175 81L175 438" stroke="#323232" stroke-width="2" fill="none"></path></g><g id="SvgjsG1068" transform="translate(125,438)"><path id="SvgjsPath1069" d="M 0 0L 100 0L 100 70L 0 70Z" stroke="#323232" stroke-width="2" fill-opacity="1" fill="#ffffff"></path><g id="SvgjsG1070"><text id="SvgjsText1071" font-family="微软雅黑" text-anchor="middle" font-size="13px" width="26" fill="#323232" font-weight="400" align="middle" anchor="middle" family="微软雅黑" size="13px" weight="400" font-style="" y="25.05" transform="rotate(0)"><tspan id="SvgjsTspan1072" dy="16" x="50"><tspan id="SvgjsTspan1073" style="text-decoration:;">拉取</tspan></tspan></text></g></g><g id="SvgjsG1074"><path id="SvgjsPath1075" d="M175 508L175 613.5L175 613.5L175 719" stroke="#323232" stroke-width="2" fill="none" marker-end="url(#SvgjsMarker1076)"></path></g><g id="SvgjsG1078" transform="translate(25,581)"><path id="SvgjsPath1079" d="M 0 0L 100 0L 100 70L 0 70Z" stroke="#323232" stroke-width="2" fill-opacity="1" fill="#ffffff"></path><g id="SvgjsG1080"><text id="SvgjsText1081" font-family="微软雅黑" text-anchor="middle" font-size="13px" width="26" fill="#323232" font-weight="400" align="middle" anchor="middle" family="微软雅黑" size="13px" weight="400" font-style="" y="25.05" transform="rotate(0)"><tspan id="SvgjsTspan1082" dy="16" x="50"><tspan id="SvgjsTspan1083" style="text-decoration:;">推送</tspan></tspan></text></g></g><g id="SvgjsG1084" transform="translate(488,30)"><path id="SvgjsPath1085" d="M 16.666666666666668 0L 83.33333333333333 0C 105.55555555555556 0 105.55555555555556 50 83.33333333333333 50L 16.666666666666668 50C -5.555555555555556 50 -5.555555555555556 0 16.666666666666668 0Z" stroke="#323232" stroke-width="2" fill-opacity="1" fill="#ffffff"></path><g id="SvgjsG1086"><text id="SvgjsText1087" font-family="微软雅黑" text-anchor="middle" font-size="13px" width="26" fill="#323232" font-weight="400" align="middle" anchor="middle" family="微软雅黑" size="13px" weight="400" font-style="" y="15.05" transform="rotate(0)"><tspan id="SvgjsTspan1088" dy="16" x="50"><tspan id="SvgjsTspan1089" style="text-decoration:;">发布</tspan></tspan></text></g></g><g id="SvgjsG1090" transform="translate(418,262)"><path id="SvgjsPath1091" d="M 0 43.5L 51 0L 102 43.5L 51 87L 0 43.5Z" stroke="#323232" stroke-width="2" fill-opacity="1" fill="#ffffff"></path><g id="SvgjsG1092"><text id="SvgjsText1093" font-family="微软雅黑" text-anchor="middle" font-size="13px" width="78" fill="#323232" font-weight="400" align="middle" anchor="middle" family="微软雅黑" size="13px" weight="400" font-style="" y="33.55" transform="rotate(0)"><tspan id="SvgjsTspan1094" dy="16" x="51"><tspan id="SvgjsTspan1095" style="text-decoration:;">是否符合约束</tspan></tspan></text></g></g><g id="SvgjsG1096"><path id="SvgjsPath1097" d="M538 80L538 99.5L469 99.5L469 119" stroke="#323232" stroke-width="2" fill="none" marker-end="url(#SvgjsMarker1098)"></path></g><g id="SvgjsG1100" transform="translate(125,860)"><path id="SvgjsPath1101" d="M 16.666666666666668 0L 83.33333333333333 0C 105.55555555555556 0 105.55555555555556 50 83.33333333333333 50L 16.666666666666668 50C -5.555555555555556 50 -5.555555555555556 0 16.666666666666668 0Z" stroke="#323232" stroke-width="2" fill-opacity="1" fill="#ffffff"></path><g id="SvgjsG1102"><text id="SvgjsText1103" font-family="微软雅黑" text-anchor="middle" font-size="13px" width="26" fill="#323232" font-weight="400" align="middle" anchor="middle" family="微软雅黑" size="13px" weight="400" font-style="" y="15.05" transform="rotate(0)"><tspan id="SvgjsTspan1104" dy="16" x="50"><tspan id="SvgjsTspan1105" style="text-decoration:;">结束</tspan></tspan></text></g></g><g id="SvgjsG1106"><path id="SvgjsPath1107" d="M175 789L175 824.5L175 824.5L175 860" stroke="#323232" stroke-width="2" fill="none" marker-end="url(#SvgjsMarker1108)"></path></g><g id="SvgjsG1110" transform="translate(419,425)"><path id="SvgjsPath1111" d="M 0 16.666666666666668L 100 0L 100 70L 0 70L 0 16.666666666666668Z" stroke="#323232" stroke-width="2" fill-opacity="1" fill="#ffffff"></path><g id="SvgjsG1112"><text id="SvgjsText1113" font-family="微软雅黑" text-anchor="middle" font-size="13px" width="78" fill="#323232" font-weight="400" align="middle" anchor="middle" family="微软雅黑" size="13px" weight="400" font-style="" y="28.55" transform="rotate(0)"><tspan id="SvgjsTspan1114" dy="16" x="50"><tspan id="SvgjsTspan1115" style="text-decoration:;">输入物料信息</tspan></tspan></text></g></g><g id="SvgjsG1116" transform="translate(415.5,367)"><path id="SvgjsPath1117" d="M 0 0L 107 0L 107 27L 0 27Z" stroke="none" fill="none"></path><g id="SvgjsG1118"><text id="SvgjsText1119" font-family="微软雅黑" text-anchor="middle" font-size="13px" width="13" fill="#323232" font-weight="400" align="middle" anchor="middle" family="微软雅黑" size="13px" weight="400" font-style="" y="3.55" transform="rotate(0)"><tspan id="SvgjsTspan1120" dy="16" x="53.5"><tspan id="SvgjsTspan1121" style="text-decoration:;">是</tspan></tspan></text></g></g><g id="SvgjsG1122"><path id="SvgjsPath1123" d="M469 394L469 413.66666666666663L469 413.66666666666663L469 433.3333333333333" stroke="#323232" stroke-width="2" fill="none" marker-end="url(#SvgjsMarker1124)"></path></g><g id="SvgjsG1126" transform="translate(545.5,729)"><path id="SvgjsPath1127" d="M 16.666666666666668 0L 83.33333333333333 0C 105.55555555555556 0 105.55555555555556 50 83.33333333333333 50L 16.666666666666668 50C -5.555555555555556 50 -5.555555555555556 0 16.666666666666668 0Z" stroke="#323232" stroke-width="2" fill-opacity="1" fill="#ffffff"></path><g id="SvgjsG1128"><text id="SvgjsText1129" font-family="微软雅黑" text-anchor="middle" font-size="13px" width="26" fill="#323232" font-weight="400" align="middle" anchor="middle" family="微软雅黑" size="13px" weight="400" font-style="" y="15.05" transform="rotate(0)"><tspan id="SvgjsTspan1130" dy="16" x="50"><tspan id="SvgjsTspan1131" style="text-decoration:;">结束</tspan></tspan></text></g></g><g id="SvgjsG1132" transform="translate(574,295.5)"><path id="SvgjsPath1133" d="M 0 0L 43 0L 43 20L 0 20Z" stroke="none" fill="none"></path><g id="SvgjsG1134"><text id="SvgjsText1135" font-family="微软雅黑" text-anchor="middle" font-size="13px" width="13" fill="#323232" font-weight="400" align="middle" anchor="middle" family="微软雅黑" size="13px" weight="400" font-style="" y="0.050000000000000044" transform="rotate(0)"><tspan id="SvgjsTspan1136" dy="16" x="21.5"><tspan id="SvgjsTspan1137" style="text-decoration:;">否</tspan></tspan></text></g></g><g id="SvgjsG1138"><path id="SvgjsPath1139" d="M595.5 315.5L595.5 522.25L595.5 522.25L595.5 729" stroke="#323232" stroke-width="2" fill="none" marker-end="url(#SvgjsMarker1140)"></path></g><g id="SvgjsG1142" transform="translate(419,575)"><path id="SvgjsPath1143" d="M 0 61.666666666666664L 0 0L 100 0L 100 61.666666666666664Q 75 45 50 61.666666666666664Q 25 78.33333333333333 0 61.666666666666664Z" stroke="#323232" stroke-width="2" fill-opacity="1" fill="#ffffff"></path><g id="SvgjsG1144"><text id="SvgjsText1145" font-family="微软雅黑" text-anchor="middle" font-size="13px" width="78" fill="#323232" font-weight="400" align="middle" anchor="middle" family="微软雅黑" size="13px" weight="400" font-style="" y="21.55" transform="rotate(0)"><tspan id="SvgjsTspan1146" dy="16" x="50"><tspan id="SvgjsTspan1147" style="text-decoration:;">物料配置文件</tspan></tspan></text></g></g><g id="SvgjsG1148"><path id="SvgjsPath1149" d="M469 495L469 535L469 535L469 575" stroke="#323232" stroke-width="2" fill="none" marker-end="url(#SvgjsMarker1150)"></path></g><g id="SvgjsG1152" transform="translate(883,30)"><path id="SvgjsPath1153" d="M 16.666666666666668 0L 83.33333333333333 0C 105.55555555555556 0 105.55555555555556 50 83.33333333333333 50L 16.666666666666668 50C -5.555555555555556 50 -5.555555555555556 0 16.666666666666668 0Z" stroke="#323232" stroke-width="2" fill-opacity="1" fill="#ffffff"></path><g id="SvgjsG1154"><text id="SvgjsText1155" font-family="微软雅黑" text-anchor="middle" font-size="13px" width="26" fill="#323232" font-weight="400" align="middle" anchor="middle" family="微软雅黑" size="13px" weight="400" font-style="" y="15.05" transform="rotate(0)"><tspan id="SvgjsTspan1156" dy="16" x="50"><tspan id="SvgjsTspan1157" style="text-decoration:;">查找</tspan></tspan></text></g></g><g id="SvgjsG1158" transform="translate(419,719)"><path id="SvgjsPath1159" d="M 0 61.666666666666664L 0 0L 100 0L 100 61.666666666666664Q 75 45 50 61.666666666666664Q 25 78.33333333333333 0 61.666666666666664Z" stroke="#323232" stroke-width="2" fill-opacity="1" fill="#ffffff"></path><g id="SvgjsG1160"><text id="SvgjsText1161" font-family="微软雅黑" text-anchor="middle" font-size="13px" width="78" fill="#323232" font-weight="400" align="middle" anchor="middle" family="微软雅黑" size="13px" weight="400" font-style="" y="21.55" transform="rotate(0)"><tspan id="SvgjsTspan1162" dy="16" x="50"><tspan id="SvgjsTspan1163" style="text-decoration:;">物料列表文件</tspan></tspan></text></g></g><g id="SvgjsG1164"><path id="SvgjsPath1165" d="M469 636.6666666666666L469 677.8333333333333L469 677.8333333333333L469 719" stroke="#323232" stroke-width="2" fill="none" marker-end="url(#SvgjsMarker1166)"></path></g><g id="SvgjsG1168"><path id="SvgjsPath1169" d="M419 754L393 754L393 754L367 754" stroke="#323232" stroke-width="2" fill="none" marker-end="url(#SvgjsMarker1170)"></path></g><g id="SvgjsG1172"><path id="SvgjsPath1173" d="M469 349L469 358L469 358L469 367" stroke="#323232" stroke-width="2" fill="none"></path></g><g id="SvgjsG1174" transform="translate(883,107)"><path id="SvgjsPath1175" d="M 0 0L 100 0L 100 70L 0 70Z" stroke="#323232" stroke-width="2" fill-opacity="1" fill="#ffffff"></path><g id="SvgjsG1176"><text id="SvgjsText1177" font-family="微软雅黑" text-anchor="middle" font-size="13px" width="78" fill="#323232" font-weight="400" align="middle" anchor="middle" family="微软雅黑" size="13px" weight="400" font-style="" y="17.05" transform="rotate(0)"><tspan id="SvgjsTspan1178" dy="16" x="50"><tspan id="SvgjsTspan1179" style="text-decoration:;">列出待选物料</tspan></tspan><tspan id="SvgjsTspan1180" dy="16" x="50"><tspan id="SvgjsTspan1181" style="text-decoration:;">列表</tspan></tspan></text></g></g><g id="SvgjsG1182"><path id="SvgjsPath1183" d="M933 80L933 93.5L933 93.5L933 107" stroke="#323232" stroke-width="2" fill="none"></path></g><g id="SvgjsG1184" transform="translate(752,30)"><path id="SvgjsPath1185" d="M 16.666666666666668 0L 83.33333333333333 0C 105.55555555555556 0 105.55555555555556 50 83.33333333333333 50L 16.666666666666668 50C -5.555555555555556 50 -5.555555555555556 0 16.666666666666668 0Z" stroke="#323232" stroke-width="2" fill-opacity="1" fill="#ffffff"></path><g id="SvgjsG1186"><text id="SvgjsText1187" font-family="微软雅黑" text-anchor="middle" font-size="13px" width="26" fill="#323232" font-weight="400" align="middle" anchor="middle" family="微软雅黑" size="13px" weight="400" font-style="" y="15.05" transform="rotate(0)"><tspan id="SvgjsTspan1188" dy="16" x="50"><tspan id="SvgjsTspan1189" style="text-decoration:;">载入</tspan></tspan></text></g></g><g id="SvgjsG1190" transform="translate(752,135)"><path id="SvgjsPath1191" d="M 0 16.666666666666668L 100 0L 100 70L 0 70L 0 16.666666666666668Z" stroke="#323232" stroke-width="2" fill-opacity="1" fill="#ffffff"></path><g id="SvgjsG1192"><text id="SvgjsText1193" font-family="微软雅黑" text-anchor="middle" font-size="13px" width="52" fill="#323232" font-weight="400" align="middle" anchor="middle" family="微软雅黑" size="13px" weight="400" font-style="" y="28.55" transform="rotate(0)"><tspan id="SvgjsTspan1194" dy="16" x="50"><tspan id="SvgjsTspan1195" style="text-decoration:;">物料名称</tspan></tspan></text></g></g><g id="SvgjsG1196"><path id="SvgjsPath1197" d="M802 80L802 111.66666666666667L802 111.66666666666667L802 143.33333333333334" stroke="#323232" stroke-width="2" fill="none" marker-end="url(#SvgjsMarker1198)"></path></g><g id="SvgjsG1200" transform="translate(745,254)"><path id="SvgjsPath1201" d="M 0 36.5L 57 0L 114 36.5L 57 73L 0 36.5Z" stroke="#323232" stroke-width="2" fill-opacity="1" fill="#ffffff"></path><g id="SvgjsG1202"><text id="SvgjsText1203" font-family="微软雅黑" text-anchor="middle" font-size="13px" width="78" fill="#323232" font-weight="400" align="middle" anchor="middle" family="微软雅黑" size="13px" weight="400" font-style="" y="26.55" transform="rotate(0)"><tspan id="SvgjsTspan1204" dy="16" x="57"><tspan id="SvgjsTspan1205" style="text-decoration:;">是否依赖完全</tspan></tspan></text></g></g><g id="SvgjsG1206"><path id="SvgjsPath1207" d="M802 205L802 229.5L802 229.5L802 254" stroke="#323232" stroke-width="2" fill="none" marker-end="url(#SvgjsMarker1208)"></path></g><g id="SvgjsG1210" transform="translate(752,441)"><path id="SvgjsPath1211" d="M 0 0L 100 0L 100 70L 0 70Z" stroke="#323232" stroke-width="2" fill-opacity="1" fill="#ffffff"></path><g id="SvgjsG1212"><text id="SvgjsText1213" font-family="微软雅黑" text-anchor="middle" font-size="13px" width="78" fill="#323232" font-weight="400" align="middle" anchor="middle" family="微软雅黑" size="13px" weight="400" font-style="" y="17.05" transform="rotate(0)"><tspan id="SvgjsTspan1214" dy="16" x="50"><tspan id="SvgjsTspan1215" style="text-decoration:;">载入源码至约</tspan></tspan><tspan id="SvgjsTspan1216" dy="16" x="50"><tspan id="SvgjsTspan1217" style="text-decoration:;">定位置</tspan></tspan></text></g></g><g id="SvgjsG1218"><path id="SvgjsPath1219" d="M802 335L802 349.5L802 349.5L802 364" stroke="#323232" stroke-width="2" fill="none"></path></g><g id="SvgjsG1220" transform="translate(752,729)"><path id="SvgjsPath1221" d="M 16.666666666666668 0L 83.33333333333333 0C 105.55555555555556 0 105.55555555555556 50 83.33333333333333 50L 16.666666666666668 50C -5.555555555555556 50 -5.555555555555556 0 16.666666666666668 0Z" stroke="#323232" stroke-width="2" fill-opacity="1" fill="#ffffff"></path><g id="SvgjsG1222"><text id="SvgjsText1223" font-family="微软雅黑" text-anchor="middle" font-size="13px" width="26" fill="#323232" font-weight="400" align="middle" anchor="middle" family="微软雅黑" size="13px" weight="400" font-style="" y="15.05" transform="rotate(0)"><tspan id="SvgjsTspan1224" dy="16" x="50"><tspan id="SvgjsTspan1225" style="text-decoration:;">结束</tspan></tspan></text></g></g><g id="SvgjsG1226" transform="translate(752,554)"><path id="SvgjsPath1227" d="M 0 0L 100 0L 100 70L 0 70Z" stroke="#323232" stroke-width="2" fill-opacity="1" fill="#ffffff"></path><g id="SvgjsG1228"><text id="SvgjsText1229" font-family="微软雅黑" text-anchor="middle" font-size="13px" width="78" fill="#323232" font-weight="400" align="middle" anchor="middle" family="微软雅黑" size="13px" weight="400" font-style="" y="25.05" transform="rotate(0)"><tspan id="SvgjsTspan1230" dy="16" x="50"><tspan id="SvgjsTspan1231" style="text-decoration:;">拷贝引入片段</tspan></tspan></text></g></g><g id="SvgjsG1232"><path id="SvgjsPath1233" d="M802 511L802 532.5L802 532.5L802 554" stroke="#323232" stroke-width="2" fill="none" marker-end="url(#SvgjsMarker1234)"></path></g><g id="SvgjsG1236"><path id="SvgjsPath1237" d="M802 624L802 676.5L802 676.5L802 729" stroke="#323232" stroke-width="2" fill="none" marker-end="url(#SvgjsMarker1238)"></path></g><g id="SvgjsG1240" transform="translate(722,364)"><path id="SvgjsPath1241" d="M 0 0L 160 0L 160 40L 0 40Z" stroke="none" fill="none"></path><g id="SvgjsG1242"><text id="SvgjsText1243" font-family="微软雅黑" text-anchor="middle" font-size="13px" width="13" fill="#323232" font-weight="400" align="middle" anchor="middle" family="微软雅黑" size="13px" weight="400" font-style="" y="10.05" transform="rotate(0)"><tspan id="SvgjsTspan1244" dy="16" x="80"><tspan id="SvgjsTspan1245" style="text-decoration:;">是</tspan></tspan></text></g></g><g id="SvgjsG1246"><path id="SvgjsPath1247" d="M802 404L802 422.5L802 422.5L802 441" stroke="#323232" stroke-width="2" fill="none" marker-end="url(#SvgjsMarker1248)"></path></g><g id="SvgjsG1250"><path id="SvgjsPath1251" d="M933 177L933 193L933 193L933 209" stroke="#323232" stroke-width="2" fill="none" marker-end="url(#SvgjsMarker1252)"></path></g><g id="SvgjsG1254" transform="translate(888,317)"><path id="SvgjsPath1255" d="M 0 35L 45 0L 90 35L 45 70L 0 35Z" stroke="#323232" stroke-width="2" fill-opacity="1" fill="#ffffff"></path><g id="SvgjsG1256"><text id="SvgjsText1257" font-family="微软雅黑" text-anchor="middle" font-size="13px" width="52" fill="#323232" font-weight="400" align="middle" anchor="middle" family="微软雅黑" size="13px" weight="400" font-style="" y="25.05" transform="rotate(0)"><tspan id="SvgjsTspan1258" dy="16" x="45"><tspan id="SvgjsTspan1259" style="text-decoration:;">是否载入</tspan></tspan></text></g></g><g id="SvgjsG1260"><path id="SvgjsPath1261" d="M933 387L933 406L933 406L933 425" stroke="#323232" stroke-width="2" fill="none"></path></g><g id="SvgjsG1262"><path id="SvgjsPath1263" d="M978 352L1000 352L1000 441" stroke="#323232" stroke-width="2" fill="none"></path></g><g id="SvgjsG1264" transform="translate(896,425)"><path id="SvgjsPath1265" d="M 0 0L 74 0L 74 25L 0 25Z" stroke="none" fill="none"></path><g id="SvgjsG1266"><text id="SvgjsText1267" font-family="微软雅黑" text-anchor="middle" font-size="13px" width="13" fill="#323232" font-weight="400" align="middle" anchor="middle" family="微软雅黑" size="13px" weight="400" font-style="" y="2.55" transform="rotate(0)"><tspan id="SvgjsTspan1268" dy="16" x="37"><tspan id="SvgjsTspan1269" style="text-decoration:;">是</tspan></tspan></text></g></g><g id="SvgjsG1270"><path id="SvgjsPath1271" d="M933 450L933 480L877.5 480L877.5 290.5L859 290.5" stroke="#323232" stroke-width="2" fill="none" marker-end="url(#SvgjsMarker1272)"></path></g><g id="SvgjsG1274" transform="translate(954,441)"><path id="SvgjsPath1275" d="M 0 0L 92 0L 92 24L 0 24Z" stroke="none" fill="none"></path><g id="SvgjsG1276"><text id="SvgjsText1277" font-family="微软雅黑" text-anchor="middle" font-size="13px" width="13" fill="#323232" font-weight="400" align="middle" anchor="middle" family="微软雅黑" size="13px" weight="400" font-style="" y="2.05" transform="rotate(0)"><tspan id="SvgjsTspan1278" dy="16" x="46"><tspan id="SvgjsTspan1279" style="text-decoration:;">否</tspan></tspan></text></g></g><g id="SvgjsG1280"><path id="SvgjsPath1281" d="M1000 465L1000 754L852 754" stroke="#323232" stroke-width="2" fill="none" marker-end="url(#SvgjsMarker1282)"></path></g><g id="SvgjsG1284" transform="translate(424,119)"><path id="SvgjsPath1285" d="M 0 35L 45 0L 90 35L 45 70L 0 35Z" stroke="#323232" stroke-width="2" fill-opacity="1" fill="#ffffff"></path><g id="SvgjsG1286"><text id="SvgjsText1287" font-family="微软雅黑" text-anchor="middle" font-size="13px" width="52" fill="#323232" font-weight="400" align="middle" anchor="middle" family="微软雅黑" size="13px" weight="400" font-style="" y="25.05" transform="rotate(0)"><tspan id="SvgjsTspan1288" dy="16" x="45"><tspan id="SvgjsTspan1289" style="text-decoration:;">是否已有</tspan></tspan></text></g></g><g id="SvgjsG1290"><path id="SvgjsPath1291" d="M520 305.5L547 305.5L547 305.5L574 305.5" stroke="#323232" stroke-width="2" fill="none"></path></g><g id="SvgjsG1292"><path id="SvgjsPath1293" d="M469 189L469 192.5L469 192.5L469 196" stroke="#323232" stroke-width="2" fill="none"></path></g><g id="SvgjsG1294"><path id="SvgjsPath1295" d="M469 219L469 240.5L469 240.5L469 262" stroke="#323232" stroke-width="2" fill="none" marker-end="url(#SvgjsMarker1296)"></path></g><g id="SvgjsG1298" transform="translate(595.5,119)"><path id="SvgjsPath1299" d="M 0 35L 45 0L 90 35L 45 70L 0 35Z" stroke="#323232" stroke-width="2" fill-opacity="1" fill="#ffffff"></path><g id="SvgjsG1300"><text id="SvgjsText1301" font-family="微软雅黑" text-anchor="middle" font-size="13px" width="52" fill="#323232" font-weight="400" align="middle" anchor="middle" family="微软雅黑" size="13px" weight="400" font-style="" y="25.05" transform="rotate(0)"><tspan id="SvgjsTspan1302" dy="16" x="45"><tspan id="SvgjsTspan1303" style="text-decoration:;">继续发布</tspan></tspan></text></g></g><g id="SvgjsG1304"><path id="SvgjsPath1305" d="M685.5 154L715.5 154L715.5 265.5L595.5 265.5L595.5 295.5" stroke="#323232" stroke-width="2" fill="none"></path></g><g id="SvgjsG1306" transform="translate(442,196)"><path id="SvgjsPath1307" d="M 0 0L 54 0L 54 23L 0 23Z" stroke="none" fill="none"></path><g id="SvgjsG1308"><text id="SvgjsText1309" font-family="微软雅黑" text-anchor="middle" font-size="13px" width="13" fill="#323232" font-weight="400" align="middle" anchor="middle" family="微软雅黑" size="13px" weight="400" font-style="" y="1.55" transform="rotate(0)"><tspan id="SvgjsTspan1310" dy="16" x="27"><tspan id="SvgjsTspan1311" style="text-decoration:;">否</tspan></tspan></text></g></g><g id="SvgjsG1312" transform="translate(535,143)"><path id="SvgjsPath1313" d="M 0 0L 28 0L 28 22L 0 22Z" stroke="none" fill="none"></path><g id="SvgjsG1314"><text id="SvgjsText1315" font-family="微软雅黑" text-anchor="middle" font-size="13px" width="13" fill="#323232" font-weight="400" align="middle" anchor="middle" family="微软雅黑" size="13px" weight="400" font-style="" y="1.05" transform="rotate(0)"><tspan id="SvgjsTspan1316" dy="16" x="14"><tspan id="SvgjsTspan1317" style="text-decoration:;">是</tspan></tspan></text></g></g><g id="SvgjsG1318" transform="translate(519,216)"><path id="SvgjsPath1319" d="M 0 0L 38 0L 38 22L 0 22Z" stroke="none" fill="none"></path><g id="SvgjsG1320"><text id="SvgjsText1321" font-family="微软雅黑" text-anchor="middle" font-size="13px" width="13" fill="#323232" font-weight="400" align="middle" anchor="middle" family="微软雅黑" size="13px" weight="400" font-style="" y="1.05" transform="rotate(0)"><tspan id="SvgjsTspan1322" dy="16" x="19"><tspan id="SvgjsTspan1323" style="text-decoration:;">是</tspan></tspan></text></g></g><g id="SvgjsG1324" transform="translate(351.5,30)"><path id="SvgjsPath1325" d="M 16.666666666666668 0L 83.33333333333333 0C 105.55555555555556 0 105.55555555555556 50 83.33333333333333 50L 16.666666666666668 50C -5.555555555555556 50 -5.555555555555556 0 16.666666666666668 0Z" stroke="#323232" stroke-width="2" fill-opacity="1" fill="#ffffff"></path><g id="SvgjsG1326"><text id="SvgjsText1327" font-family="微软雅黑" text-anchor="middle" font-size="13px" width="26" fill="#323232" font-weight="400" align="middle" anchor="middle" family="微软雅黑" size="13px" weight="400" font-style="" y="15.05" transform="rotate(0)"><tspan id="SvgjsTspan1328" dy="16" x="50"><tspan id="SvgjsTspan1329" style="text-decoration:;">更新</tspan></tspan></text></g></g><g id="SvgjsG1330"><path id="SvgjsPath1331" d="M401.5 80L401.5 305.5L418 305.5" stroke="#323232" stroke-width="2" fill="none" marker-end="url(#SvgjsMarker1332)"></path></g><g id="SvgjsG1334"><path id="SvgjsPath1335" d="M514 154L524.5 154L524.5 154L535 154" stroke="#323232" stroke-width="2" fill="none"></path></g><g id="SvgjsG1336"><path id="SvgjsPath1337" d="M563 154L579.25 154L579.25 154L595.5 154" stroke="#323232" stroke-width="2" fill="none" marker-end="url(#SvgjsMarker1338)"></path></g><g id="SvgjsG1340"><path id="SvgjsPath1341" d="M640.5 189L640.5 227L557 227" stroke="#323232" stroke-width="2" fill="none"></path></g><g id="SvgjsG1342"><path id="SvgjsPath1343" d="M519 227L469 227L469 262" stroke="#323232" stroke-width="2" fill="none"></path></g><g id="SvgjsG1344" transform="translate(883,209)"><path id="SvgjsPath1345" d="M 0 0L 100 0L 83.33333333333333 70L 16.666666666666668 70L 0 0Z" stroke="#323232" stroke-width="2" fill-opacity="1" fill="#ffffff"></path><g id="SvgjsG1346"><text id="SvgjsText1347" font-family="微软雅黑" text-anchor="middle" font-size="13px" width="52" fill="#323232" font-weight="400" align="middle" anchor="middle" family="微软雅黑" size="13px" weight="400" font-style="" y="25.05" transform="rotate(0)"><tspan id="SvgjsTspan1348" dy="16" x="50"><tspan id="SvgjsTspan1349" style="text-decoration:;">选择物料</tspan></tspan></text></g></g><g id="SvgjsG1350"><path id="SvgjsPath1351" d="M933 279L933 298L933 298L933 317" stroke="#323232" stroke-width="2" fill="none" marker-end="url(#SvgjsMarker1352)"></path></g><g id="SvgjsG1354" transform="translate(634,450)"><path id="SvgjsPath1355" d="M 0 0L 160 0L 160 40L 0 40Z" stroke="none" fill="none"></path><g id="SvgjsG1356"><text id="SvgjsText1357" font-family="微软雅黑" text-anchor="middle" font-size="13px" width="13" fill="#323232" font-weight="400" align="middle" anchor="middle" family="微软雅黑" size="13px" weight="400" font-style="" y="10.05" transform="rotate(0)"><tspan id="SvgjsTspan1358" dy="16" x="80"><tspan id="SvgjsTspan1359" style="text-decoration:;">否</tspan></tspan></text></g></g><g id="SvgjsG1360"><path id="SvgjsPath1361" d="M745 290.5L714 290.5L714 450" stroke="#323232" stroke-width="2" fill="none"></path></g><g id="SvgjsG1362"><path id="SvgjsPath1363" d="M714 490L714 754L752 754" stroke="#323232" stroke-width="2" fill="none" marker-end="url(#SvgjsMarker1364)"></path></g></svg>